<svg xmlns="http://www.w3.org/2000/svg" xmlns:xlink="http://www.w3.org/1999/xlink" width="500" zoomAndPan="magnify" viewBox="0 0 375 374.999991" height="500" preserveAspectRatio="xMidYMid meet" version="1.0"><defs><g/><clipPath id="id1"><path d="M 86.792969 88.109375 L 288.542969 88.109375 L 288.542969 289.859375 L 86.792969 289.859375 Z M 86.792969 88.109375 " clip-rule="nonzero"/></clipPath><clipPath id="id2"><path d="M 86.792969 88.109375 L 288.542969 88.109375 L 288.542969 289.859375 L 86.792969 289.859375 Z M 86.792969 88.109375 " clip-rule="nonzero"/></clipPath><clipPath id="id3"><path d="M 187.667969 88.109375 C 131.957031 88.109375 86.792969 133.273438 86.792969 188.984375 C 86.792969 244.699219 131.957031 289.859375 187.667969 289.859375 C 243.378906 289.859375 288.542969 244.699219 288.542969 188.984375 C 288.542969 133.273438 243.378906 88.109375 187.667969 88.109375 " clip-rule="nonzero"/></clipPath><clipPath id="id4"><path d="M 116.992188 118.308594 L 257.992188 118.308594 L 257.992188 259.308594 L 116.992188 259.308594 Z M 116.992188 118.308594 " clip-rule="nonzero"/></clipPath><clipPath id="id5"><path d="M 116.992188 118.308594 L 257.992188 118.308594 L 257.992188 259.308594 L 116.992188 259.308594 Z M 116.992188 118.308594 " clip-rule="nonzero"/></clipPath><clipPath id="id6"><path d="M 187.492188 118.308594 C 148.554688 118.308594 116.992188 149.875 116.992188 188.808594 C 116.992188 227.746094 148.554688 259.308594 187.492188 259.308594 C 226.425781 259.308594 257.992188 227.746094 257.992188 188.808594 C 257.992188 149.875 226.425781 118.308594 187.492188 118.308594 " clip-rule="nonzero"/></clipPath><clipPath id="id7"><path d="M 224 183 L 239.851562 183 L 239.851562 188 L 224 188 Z M 224 183 " clip-rule="nonzero"/></clipPath><clipPath id="id8"><path d="M 185 132.367188 L 190 132.367188 L 190 148 L 185 148 Z M 185 132.367188 " clip-rule="nonzero"/></clipPath><clipPath id="id9"><path d="M 178 237 L 197 237 L 197 242.617188 L 178 242.617188 Z M 178 237 " clip-rule="nonzero"/></clipPath></defs><rect x="-37.5" width="450" fill="#ffffff" y="-37.499999" height="449.999989" fill-opacity="1"/><rect x="-37.5" width="450" fill="#ffffff" y="-37.499999" height="449.999989" fill-opacity="1"/><rect x="-37.5" width="450" fill="#ffffff" y="-37.499999" height="449.999989" fill-opacity="1"/><g clip-path="url(#id1)"><path fill="#ffffff" d="M 187.667969 88.109375 C 131.957031 88.109375 86.792969 133.273438 86.792969 188.984375 C 86.792969 244.699219 131.957031 289.859375 187.667969 289.859375 C 243.378906 289.859375 288.542969 244.699219 288.542969 188.984375 C 288.542969 133.273438 243.378906 88.109375 187.667969 88.109375 " fill-opacity="1" fill-rule="nonzero"/></g><g clip-path="url(#id2)"><g clip-path="url(#id3)"><path stroke-linecap="butt" transform="matrix(0.751265, 0, 0, 0.751265, 86.793112, 88.111005)" fill="none" stroke-linejoin="miter" d="M 134.273255 -0.00216916 C 60.117126 -0.00216916 -0.000190147 60.115147 -0.000190147 134.271276 C -0.000190147 208.432605 60.117126 268.544722 134.273255 268.544722 C 208.429385 268.544722 268.546701 208.432605 268.546701 134.271276 C 268.546701 60.115147 208.429385 -0.00216916 134.273255 -0.00216916 " stroke="#000000" stroke-width="6" stroke-opacity="1" stroke-miterlimit="4"/></g></g><g clip-path="url(#id4)"><path fill="#ffffff" d="M 187.492188 118.308594 C 148.554688 118.308594 116.992188 149.875 116.992188 188.808594 C 116.992188 227.746094 148.554688 259.308594 187.492188 259.308594 C 226.425781 259.308594 257.992188 227.746094 257.992188 188.808594 C 257.992188 149.875 226.425781 118.308594 187.492188 118.308594 " fill-opacity="1" fill-rule="nonzero"/></g><g clip-path="url(#id5)"><g clip-path="url(#id6)"><path stroke-linecap="butt" transform="matrix(0.749938, 0, 0, 0.749938, 116.99145, 118.309343)" fill="none" stroke-linejoin="miter" d="M 94.008798 -0.000999658 C 42.087815 -0.000999658 0.000982858 42.091041 0.000982858 94.006816 C 0.000982858 145.927799 42.087815 188.014632 94.008798 188.014632 C 145.924573 188.014632 188.016614 145.927799 188.016614 94.006816 C 188.016614 42.091041 145.924573 -0.000999658 94.008798 -0.000999658 " stroke="#000000" stroke-width="8" stroke-opacity="1" stroke-miterlimit="4"/></g></g><g fill="#000000" fill-opacity="1"><g transform="translate(112.804322, 202.392302)"><g><path d="M -2.515625 -8.6875 C -2.578125 -9.195312 -2.691406 -9.640625 -2.859375 -10.015625 C -3.023438 -10.390625 -3.21875 -10.722656 -3.4375 -11.015625 C -3.664062 -11.316406 -3.914062 -11.566406 -4.1875 -11.765625 C -4.457031 -11.960938 -4.71875 -12.140625 -4.96875 -12.296875 C -4.894531 -12.410156 -4.773438 -12.507812 -4.609375 -12.59375 C -4.453125 -12.675781 -4.285156 -12.726562 -4.109375 -12.75 C -3.816406 -12.789062 -3.5 -12.75 -3.15625 -12.625 C -2.8125 -12.507812 -2.484375 -12.285156 -2.171875 -11.953125 C -1.859375 -11.617188 -1.578125 -11.160156 -1.328125 -10.578125 C -1.078125 -10.003906 -0.898438 -9.269531 -0.796875 -8.375 C -0.648438 -7.175781 -0.707031 -6.097656 -0.96875 -5.140625 C -1.226562 -4.191406 -1.660156 -3.378906 -2.265625 -2.703125 C -2.867188 -2.035156 -3.617188 -1.492188 -4.515625 -1.078125 C -5.421875 -0.660156 -6.453125 -0.382812 -7.609375 -0.25 C -8.734375 -0.113281 -9.78125 -0.140625 -10.75 -0.328125 C -11.71875 -0.523438 -12.570312 -0.882812 -13.3125 -1.40625 C -14.0625 -1.925781 -14.671875 -2.613281 -15.140625 -3.46875 C -15.617188 -4.320312 -15.929688 -5.335938 -16.078125 -6.515625 C -16.171875 -7.316406 -16.191406 -8.019531 -16.140625 -8.625 C -16.085938 -9.238281 -15.976562 -9.753906 -15.8125 -10.171875 C -15.644531 -10.585938 -15.425781 -10.910156 -15.15625 -11.140625 C -14.882812 -11.378906 -14.578125 -11.519531 -14.234375 -11.5625 C -13.984375 -11.582031 -13.738281 -11.550781 -13.5 -11.46875 C -13.269531 -11.394531 -13.054688 -11.253906 -12.859375 -11.046875 C -12.671875 -10.835938 -12.507812 -10.578125 -12.375 -10.265625 C -12.25 -9.953125 -12.164062 -9.582031 -12.125 -9.15625 C -12.46875 -9.125 -12.800781 -9.050781 -13.125 -8.9375 C -13.457031 -8.820312 -13.753906 -8.65625 -14.015625 -8.4375 C -14.273438 -8.226562 -14.472656 -7.96875 -14.609375 -7.65625 C -14.753906 -7.34375 -14.800781 -6.96875 -14.75 -6.53125 C -14.664062 -5.875 -14.457031 -5.332031 -14.125 -4.90625 C -13.789062 -4.488281 -13.335938 -4.175781 -12.765625 -3.96875 C -12.203125 -3.757812 -11.519531 -3.640625 -10.71875 -3.609375 C -9.925781 -3.585938 -9.03125 -3.640625 -8.03125 -3.765625 C -7.019531 -3.878906 -6.144531 -4.054688 -5.40625 -4.296875 C -4.664062 -4.546875 -4.066406 -4.863281 -3.609375 -5.25 C -3.160156 -5.632812 -2.84375 -6.109375 -2.65625 -6.671875 C -2.46875 -7.234375 -2.421875 -7.90625 -2.515625 -8.6875 Z M -2.515625 -8.6875 "/></g></g></g><g fill="#000000" fill-opacity="1"><g transform="translate(110.955774, 187.944619)"><g><path d="M 0.859375 -9.3125 L -0.25 -9.40625 L -0.171875 -10.296875 C -0.160156 -10.453125 -0.160156 -10.597656 -0.171875 -10.734375 C -0.191406 -10.867188 -0.25 -10.988281 -0.34375 -11.09375 C -0.4375 -11.207031 -0.566406 -11.296875 -0.734375 -11.359375 C -0.898438 -11.429688 -1.132812 -11.484375 -1.4375 -11.515625 L -6.109375 -11.9375 L -6.609375 -6.46875 L -1.9375 -6.046875 C -1.632812 -6.015625 -1.394531 -6.019531 -1.21875 -6.0625 C -1.039062 -6.113281 -0.894531 -6.179688 -0.78125 -6.265625 C -0.675781 -6.347656 -0.601562 -6.453125 -0.5625 -6.578125 C -0.519531 -6.703125 -0.488281 -6.835938 -0.46875 -6.984375 L -0.390625 -7.890625 L 0.71875 -7.796875 L 0.046875 -0.578125 L -1.0625 -0.671875 L -0.96875 -1.5625 C -0.957031 -1.707031 -0.960938 -1.84375 -0.984375 -1.96875 C -1.003906 -2.101562 -1.054688 -2.222656 -1.140625 -2.328125 C -1.234375 -2.441406 -1.363281 -2.535156 -1.53125 -2.609375 C -1.695312 -2.679688 -1.929688 -2.734375 -2.234375 -2.765625 L -12.296875 -3.6875 C -12.566406 -3.707031 -12.785156 -3.691406 -12.953125 -3.640625 C -13.128906 -3.597656 -13.265625 -3.53125 -13.359375 -3.4375 C -13.460938 -3.351562 -13.535156 -3.25 -13.578125 -3.125 C -13.617188 -3.007812 -13.644531 -2.878906 -13.65625 -2.734375 L -13.75 -1.84375 L -14.875 -1.953125 L -14.203125 -9.171875 L -13.078125 -9.0625 L -13.15625 -8.15625 C -13.175781 -8.007812 -13.175781 -7.867188 -13.15625 -7.734375 C -13.132812 -7.609375 -13.082031 -7.492188 -13 -7.390625 C -12.914062 -7.285156 -12.789062 -7.191406 -12.625 -7.109375 C -12.457031 -7.035156 -12.222656 -6.984375 -11.921875 -6.953125 L -7.890625 -6.59375 L -7.390625 -12.0625 L -11.421875 -12.421875 C -11.722656 -12.453125 -11.960938 -12.445312 -12.140625 -12.40625 C -12.316406 -12.375 -12.453125 -12.3125 -12.546875 -12.21875 C -12.648438 -12.132812 -12.722656 -12.023438 -12.765625 -11.890625 C -12.816406 -11.765625 -12.847656 -11.625 -12.859375 -11.46875 L -12.9375 -10.578125 L -14.0625 -10.6875 L -13.40625 -17.90625 L -12.28125 -17.796875 L -12.359375 -16.921875 C -12.367188 -16.773438 -12.363281 -16.632812 -12.34375 -16.5 C -12.320312 -16.375 -12.269531 -16.253906 -12.1875 -16.140625 C -12.101562 -16.035156 -11.976562 -15.945312 -11.8125 -15.875 C -11.644531 -15.8125 -11.410156 -15.765625 -11.109375 -15.734375 L -1 -14.8125 C -0.726562 -14.78125 -0.507812 -14.785156 -0.34375 -14.828125 C -0.175781 -14.878906 -0.046875 -14.945312 0.046875 -15.03125 C 0.140625 -15.125 0.207031 -15.226562 0.25 -15.34375 C 0.289062 -15.46875 0.316406 -15.601562 0.328125 -15.75 L 0.40625 -16.625 L 1.515625 -16.53125 Z M 0.859375 -9.3125 "/></g></g></g><g fill="#000000" fill-opacity="1"><g transform="translate(113.04668, 170.15141)"><g><path d="M 0.15625 -0.5625 L -0.90625 -0.859375 L -0.671875 -1.71875 C -0.628906 -1.863281 -0.601562 -2.003906 -0.59375 -2.140625 C -0.59375 -2.273438 -0.628906 -2.398438 -0.703125 -2.515625 C -0.785156 -2.640625 -0.898438 -2.75 -1.046875 -2.84375 C -1.203125 -2.945312 -1.425781 -3.035156 -1.71875 -3.109375 L -11.375 -5.78125 C -11.664062 -5.863281 -11.90625 -5.898438 -12.09375 -5.890625 C -12.28125 -5.890625 -12.425781 -5.851562 -12.53125 -5.78125 C -12.644531 -5.71875 -12.734375 -5.625 -12.796875 -5.5 C -12.867188 -5.382812 -12.925781 -5.253906 -12.96875 -5.109375 L -13.203125 -4.25 L -14.28125 -4.546875 L -12.359375 -11.53125 L -11.28125 -11.234375 L -11.515625 -10.390625 C -11.554688 -10.234375 -11.578125 -10.085938 -11.578125 -9.953125 C -11.578125 -9.828125 -11.546875 -9.703125 -11.484375 -9.578125 C -11.421875 -9.460938 -11.3125 -9.351562 -11.15625 -9.25 C -11 -9.15625 -10.773438 -9.066406 -10.484375 -8.984375 L -0.828125 -6.3125 C -0.535156 -6.238281 -0.296875 -6.203125 -0.109375 -6.203125 C 0.0664062 -6.210938 0.21875 -6.25 0.34375 -6.3125 C 0.46875 -6.382812 0.5625 -6.476562 0.625 -6.59375 C 0.6875 -6.707031 0.738281 -6.84375 0.78125 -7 L 1.015625 -7.84375 L 2.078125 -7.546875 Z M 0.15625 -0.5625 "/></g></g></g><g fill="#000000" fill-opacity="1"><g transform="translate(115.406216, 161.1168)"><g><path d="M 1.25 -8.78125 C 1.53125 -8.65625 1.765625 -8.578125 1.953125 -8.546875 C 2.140625 -8.523438 2.296875 -8.539062 2.421875 -8.59375 C 2.546875 -8.644531 2.648438 -8.71875 2.734375 -8.8125 C 2.816406 -8.914062 2.890625 -9.039062 2.953125 -9.1875 L 3.3125 -9.984375 L 4.328125 -9.53125 L 1.34375 -2.9375 L 0.328125 -3.390625 L 0.6875 -4.1875 C 0.75 -4.332031 0.789062 -4.472656 0.8125 -4.609375 C 0.84375 -4.742188 0.832031 -4.875 0.78125 -5 C 0.738281 -5.125 0.644531 -5.25 0.5 -5.375 C 0.363281 -5.5 0.15625 -5.625 -0.125 -5.75 L -10.328125 -10.390625 L -11.015625 -8.859375 C -11.148438 -8.578125 -11.234375 -8.320312 -11.265625 -8.09375 C -11.296875 -7.863281 -11.273438 -7.664062 -11.203125 -7.5 C -11.140625 -7.332031 -11.035156 -7.179688 -10.890625 -7.046875 C -10.753906 -6.910156 -10.585938 -6.785156 -10.390625 -6.671875 L -9.25 -6 L -9.84375 -4.703125 L -13.515625 -6.484375 L -8.09375 -18.390625 L -4.34375 -16.8125 L -4.921875 -15.53125 L -6.1875 -15.9375 C -6.40625 -16 -6.609375 -16.035156 -6.796875 -16.046875 C -6.992188 -16.066406 -7.179688 -16.039062 -7.359375 -15.96875 C -7.535156 -15.894531 -7.691406 -15.78125 -7.828125 -15.625 C -7.972656 -15.46875 -8.113281 -15.242188 -8.25 -14.953125 L -8.953125 -13.421875 Z M 1.25 -8.78125 "/></g></g></g><g fill="#000000" fill-opacity="1"><g transform="translate(120.803074, 148.082359)"><g><path d="M -3.8125 -19.140625 L 4.28125 -16.453125 C 4.613281 -16.359375 4.945312 -16.242188 5.28125 -16.109375 C 5.613281 -15.972656 5.925781 -15.847656 6.21875 -15.734375 C 6.507812 -15.617188 6.78125 -15.503906 7.03125 -15.390625 C 7.28125 -15.285156 7.484375 -15.1875 7.640625 -15.09375 C 7.484375 -15.300781 7.300781 -15.523438 7.09375 -15.765625 C 6.882812 -16.003906 6.671875 -16.253906 6.453125 -16.515625 C 6.234375 -16.785156 6.003906 -17.0625 5.765625 -17.34375 C 5.535156 -17.625 5.316406 -17.898438 5.109375 -18.171875 L 2.234375 -21.84375 C 2.191406 -21.90625 2.128906 -21.976562 2.046875 -22.0625 C 1.972656 -22.144531 1.898438 -22.226562 1.828125 -22.3125 C 1.765625 -22.394531 1.703125 -22.46875 1.640625 -22.53125 C 1.578125 -22.601562 1.523438 -22.65625 1.484375 -22.6875 C 1.191406 -22.90625 0.914062 -22.976562 0.65625 -22.90625 C 0.40625 -22.832031 0.140625 -22.609375 -0.140625 -22.234375 L -0.4375 -21.875 L -1.296875 -22.5625 L 2.078125 -26.859375 L 2.9375 -26.171875 L 2.6875 -25.84375 C 2.570312 -25.695312 2.476562 -25.546875 2.40625 -25.390625 C 2.34375 -25.234375 2.320312 -25.070312 2.34375 -24.90625 C 2.363281 -24.738281 2.425781 -24.550781 2.53125 -24.34375 C 2.632812 -24.132812 2.796875 -23.882812 3.015625 -23.59375 L 10.609375 -13.46875 L 9.125 -11.59375 L -0.78125 -14.921875 L 5.078125 -6.4375 L 3.46875 -4.40625 L -8.921875 -9.28125 C -9.140625 -9.363281 -9.332031 -9.414062 -9.5 -9.4375 C -9.664062 -9.457031 -9.816406 -9.445312 -9.953125 -9.40625 C -10.097656 -9.363281 -10.234375 -9.289062 -10.359375 -9.1875 C -10.484375 -9.082031 -10.609375 -8.953125 -10.734375 -8.796875 L -10.90625 -8.578125 L -11.765625 -9.265625 L -7.421875 -14.78125 L -6.5625 -14.09375 L -6.859375 -13.703125 C -7.128906 -13.367188 -7.265625 -13.070312 -7.265625 -12.8125 C -7.265625 -12.550781 -7.128906 -12.3125 -6.859375 -12.09375 C -6.765625 -12.019531 -6.613281 -11.929688 -6.40625 -11.828125 C -6.195312 -11.734375 -6.003906 -11.648438 -5.828125 -11.578125 L -1.140625 -9.671875 C -0.890625 -9.566406 -0.613281 -9.453125 -0.3125 -9.328125 C -0.0195312 -9.203125 0.269531 -9.066406 0.5625 -8.921875 C 0.863281 -8.785156 1.148438 -8.648438 1.421875 -8.515625 C 1.691406 -8.390625 1.921875 -8.265625 2.109375 -8.140625 C 1.816406 -8.492188 1.550781 -8.835938 1.3125 -9.171875 C 1.070312 -9.503906 0.832031 -9.84375 0.59375 -10.1875 L -4.765625 -17.9375 Z M -3.8125 -19.140625 "/></g></g></g><g fill="#000000" fill-opacity="1"><g transform="translate(135.125771, 130.612957)"><g><path d="M 0.640625 -6.6875 L 1.265625 -4.890625 C 1.328125 -4.722656 1.398438 -4.53125 1.484375 -4.3125 C 1.578125 -4.09375 1.675781 -3.914062 1.78125 -3.78125 C 1.863281 -3.675781 1.957031 -3.597656 2.0625 -3.546875 C 2.164062 -3.492188 2.273438 -3.46875 2.390625 -3.46875 C 2.503906 -3.476562 2.613281 -3.5 2.71875 -3.53125 C 2.832031 -3.570312 2.9375 -3.628906 3.03125 -3.703125 L 3.734375 -4.234375 L 4.40625 -3.359375 L 0.0625 -0.046875 L -0.609375 -0.921875 L -0.390625 -1.078125 C -0.253906 -1.191406 -0.132812 -1.3125 -0.03125 -1.4375 C 0.0625 -1.570312 0.125 -1.722656 0.15625 -1.890625 C 0.195312 -2.054688 0.203125 -2.253906 0.171875 -2.484375 C 0.148438 -2.722656 0.0976562 -3 0.015625 -3.3125 L -3.859375 -15.890625 L -1.5625 -17.65625 L 9.40625 -10.46875 C 9.664062 -10.289062 9.898438 -10.160156 10.109375 -10.078125 C 10.328125 -9.992188 10.519531 -9.945312 10.6875 -9.9375 C 10.851562 -9.925781 11.015625 -9.941406 11.171875 -9.984375 C 11.328125 -10.035156 11.46875 -10.113281 11.59375 -10.21875 L 11.890625 -10.4375 L 12.5625 -9.5625 L 7.0625 -5.375 L 6.390625 -6.25 L 7.03125 -6.75 C 7.113281 -6.8125 7.1875 -6.882812 7.25 -6.96875 C 7.320312 -7.0625 7.367188 -7.164062 7.390625 -7.28125 C 7.421875 -7.394531 7.425781 -7.507812 7.40625 -7.625 C 7.382812 -7.738281 7.332031 -7.847656 7.25 -7.953125 C 7.144531 -8.085938 7.03125 -8.203125 6.90625 -8.296875 C 6.78125 -8.398438 6.664062 -8.484375 6.5625 -8.546875 L 4.703125 -9.78125 Z M 0.640625 -12.625 C 0.429688 -12.757812 0.21875 -12.90625 0 -13.0625 C -0.226562 -13.226562 -0.457031 -13.394531 -0.6875 -13.5625 C -0.914062 -13.738281 -1.140625 -13.910156 -1.359375 -14.078125 C -1.578125 -14.242188 -1.78125 -14.414062 -1.96875 -14.59375 C -1.894531 -14.382812 -1.8125 -14.148438 -1.71875 -13.890625 C -1.632812 -13.640625 -1.546875 -13.378906 -1.453125 -13.109375 C -1.359375 -12.847656 -1.269531 -12.582031 -1.1875 -12.3125 C -1.101562 -12.050781 -1.019531 -11.789062 -0.9375 -11.53125 L 0.21875 -7.96875 L 3.59375 -10.546875 Z M 0.640625 -12.625 "/></g></g></g><g fill="#000000" fill-opacity="1"><g transform="translate(148.091207, 120.756706)"><g><path d="M 11.15625 -5.15625 L -1.109375 -12.21875 L 2.6875 -3.96875 C 2.8125 -3.695312 2.9375 -3.492188 3.0625 -3.359375 C 3.195312 -3.222656 3.328125 -3.128906 3.453125 -3.078125 C 3.578125 -3.023438 3.707031 -3.007812 3.84375 -3.03125 C 3.976562 -3.0625 4.109375 -3.109375 4.234375 -3.171875 L 5.03125 -3.546875 L 5.5 -2.546875 L 0.53125 -0.25 L 0.0625 -1.25 L 0.859375 -1.609375 C 0.992188 -1.671875 1.113281 -1.742188 1.21875 -1.828125 C 1.332031 -1.921875 1.410156 -2.03125 1.453125 -2.15625 C 1.503906 -2.289062 1.515625 -2.445312 1.484375 -2.625 C 1.460938 -2.8125 1.390625 -3.039062 1.265625 -3.3125 L -2.96875 -12.5 C -3.082031 -12.75 -3.203125 -12.9375 -3.328125 -13.0625 C -3.460938 -13.1875 -3.59375 -13.269531 -3.71875 -13.3125 C -3.84375 -13.351562 -3.96875 -13.359375 -4.09375 -13.328125 C -4.21875 -13.304688 -4.347656 -13.265625 -4.484375 -13.203125 L -5.28125 -12.84375 L -5.75 -13.859375 L -1.515625 -15.8125 L 9.59375 -9.40625 L 6.203125 -16.75 C 6.085938 -17 5.96875 -17.1875 5.84375 -17.3125 C 5.71875 -17.4375 5.59375 -17.519531 5.46875 -17.5625 C 5.34375 -17.601562 5.210938 -17.609375 5.078125 -17.578125 C 4.953125 -17.554688 4.828125 -17.515625 4.703125 -17.453125 L 3.90625 -17.078125 L 3.4375 -18.09375 L 8.40625 -20.390625 L 8.875 -19.375 L 8.078125 -19.015625 C 7.941406 -18.953125 7.816406 -18.878906 7.703125 -18.796875 C 7.597656 -18.710938 7.519531 -18.601562 7.46875 -18.46875 C 7.425781 -18.34375 7.414062 -18.1875 7.4375 -18 C 7.46875 -17.820312 7.546875 -17.597656 7.671875 -17.328125 L 12.921875 -5.96875 Z M 11.15625 -5.15625 "/></g></g></g><g fill="#000000" fill-opacity="1"><g transform="translate(164.113622, 113.909982)"><g/></g></g><g fill="#000000" fill-opacity="1"><g transform="translate(170.142439, 111.787221)"><g><path d="M 9.296875 -1.078125 L 9.171875 -2.1875 L 10.0625 -2.296875 C 10.207031 -2.316406 10.34375 -2.347656 10.46875 -2.390625 C 10.59375 -2.429688 10.695312 -2.503906 10.78125 -2.609375 C 10.875 -2.722656 10.9375 -2.867188 10.96875 -3.046875 C 11 -3.234375 11 -3.476562 10.96875 -3.78125 L 10.421875 -8.4375 L 4.96875 -7.796875 L 5.515625 -3.140625 C 5.546875 -2.835938 5.601562 -2.601562 5.6875 -2.4375 C 5.769531 -2.269531 5.863281 -2.140625 5.96875 -2.046875 C 6.070312 -1.960938 6.191406 -1.914062 6.328125 -1.90625 C 6.460938 -1.894531 6.601562 -1.894531 6.75 -1.90625 L 7.65625 -2.015625 L 7.78125 -0.90625 L 0.578125 -0.0625 L 0.453125 -1.171875 L 1.328125 -1.28125 C 1.472656 -1.300781 1.609375 -1.328125 1.734375 -1.359375 C 1.859375 -1.398438 1.960938 -1.476562 2.046875 -1.59375 C 2.140625 -1.707031 2.203125 -1.851562 2.234375 -2.03125 C 2.273438 -2.21875 2.28125 -2.460938 2.25 -2.765625 L 1.078125 -12.796875 C 1.046875 -13.066406 0.988281 -13.28125 0.90625 -13.4375 C 0.820312 -13.601562 0.722656 -13.722656 0.609375 -13.796875 C 0.503906 -13.867188 0.382812 -13.914062 0.25 -13.9375 C 0.125 -13.957031 -0.0078125 -13.957031 -0.15625 -13.9375 L -1.03125 -13.828125 L -1.15625 -14.953125 L 6.046875 -15.796875 L 6.171875 -14.671875 L 5.265625 -14.5625 C 5.117188 -14.550781 4.984375 -14.519531 4.859375 -14.46875 C 4.734375 -14.425781 4.628906 -14.351562 4.546875 -14.25 C 4.460938 -14.144531 4.398438 -14 4.359375 -13.8125 C 4.316406 -13.625 4.3125 -13.382812 4.34375 -13.09375 L 4.8125 -9.0625 L 10.265625 -9.703125 L 9.796875 -13.734375 C 9.765625 -14.023438 9.710938 -14.253906 9.640625 -14.421875 C 9.566406 -14.597656 9.472656 -14.726562 9.359375 -14.8125 C 9.253906 -14.894531 9.132812 -14.941406 9 -14.953125 C 8.863281 -14.972656 8.722656 -14.972656 8.578125 -14.953125 L 7.6875 -14.84375 L 7.5625 -15.96875 L 14.75 -16.8125 L 14.875 -15.6875 L 14 -15.59375 C 13.851562 -15.570312 13.71875 -15.535156 13.59375 -15.484375 C 13.46875 -15.441406 13.363281 -15.367188 13.28125 -15.265625 C 13.195312 -15.160156 13.140625 -15.015625 13.109375 -14.828125 C 13.078125 -14.648438 13.078125 -14.414062 13.109375 -14.125 L 14.28125 -4.046875 C 14.320312 -3.773438 14.378906 -3.554688 14.453125 -3.390625 C 14.523438 -3.234375 14.613281 -3.117188 14.71875 -3.046875 C 14.820312 -2.972656 14.9375 -2.929688 15.0625 -2.921875 C 15.195312 -2.910156 15.335938 -2.914062 15.484375 -2.9375 L 16.359375 -3.03125 L 16.484375 -1.921875 Z M 9.296875 -1.078125 "/></g></g></g><g fill="#000000" fill-opacity="1"><g transform="translate(187.982004, 110.162683)"><g><path d="M 0.578125 0.03125 L 0.640625 -1.078125 L 1.53125 -1.015625 C 1.6875 -1.003906 1.832031 -1.007812 1.96875 -1.03125 C 2.101562 -1.0625 2.21875 -1.125 2.3125 -1.21875 C 2.414062 -1.3125 2.5 -1.441406 2.5625 -1.609375 C 2.632812 -1.785156 2.679688 -2.023438 2.703125 -2.328125 L 3.3125 -12.3125 C 3.332031 -12.613281 3.316406 -12.851562 3.265625 -13.03125 C 3.222656 -13.21875 3.15625 -13.359375 3.0625 -13.453125 C 2.976562 -13.554688 2.875 -13.625 2.75 -13.65625 C 2.625 -13.695312 2.484375 -13.722656 2.328125 -13.734375 L 1.4375 -13.796875 L 1.5 -14.921875 L 8.734375 -14.46875 L 8.671875 -13.34375 L 7.796875 -13.40625 C 7.640625 -13.414062 7.492188 -13.40625 7.359375 -13.375 C 7.222656 -13.351562 7.101562 -13.296875 7 -13.203125 C 6.894531 -13.117188 6.8125 -12.988281 6.75 -12.8125 C 6.6875 -12.644531 6.644531 -12.410156 6.625 -12.109375 L 6.015625 -2.125 C 5.992188 -1.820312 6.003906 -1.578125 6.046875 -1.390625 C 6.085938 -1.210938 6.15625 -1.070312 6.25 -0.96875 C 6.34375 -0.863281 6.453125 -0.789062 6.578125 -0.75 C 6.703125 -0.71875 6.84375 -0.695312 7 -0.6875 L 7.875 -0.625 L 7.8125 0.484375 Z M 0.578125 0.03125 "/></g></g></g><g fill="#000000" fill-opacity="1"><g transform="translate(197.228563, 110.471802)"><g><path d="M 8.59375 2.25 C 7.320312 1.945312 6.257812 1.503906 5.40625 0.921875 C 4.550781 0.347656 3.882812 -0.34375 3.40625 -1.15625 C 2.9375 -1.96875 2.660156 -2.867188 2.578125 -3.859375 C 2.492188 -4.859375 2.585938 -5.921875 2.859375 -7.046875 C 3.117188 -8.148438 3.519531 -9.117188 4.0625 -9.953125 C 4.601562 -10.796875 5.269531 -11.46875 6.0625 -11.96875 C 6.863281 -12.476562 7.785156 -12.800781 8.828125 -12.9375 C 9.867188 -13.082031 11.007812 -13.003906 12.25 -12.703125 C 13.101562 -12.503906 13.832031 -12.265625 14.4375 -11.984375 C 15.039062 -11.710938 15.53125 -11.414062 15.90625 -11.09375 C 16.28125 -10.78125 16.539062 -10.457031 16.6875 -10.125 C 16.832031 -9.789062 16.867188 -9.457031 16.796875 -9.125 C 16.734375 -8.894531 16.625 -8.6875 16.46875 -8.5 C 16.3125 -8.320312 16.097656 -8.175781 15.828125 -8.0625 C 15.554688 -7.957031 15.25 -7.894531 14.90625 -7.875 C 14.5625 -7.863281 14.171875 -7.910156 13.734375 -8.015625 C 13.835938 -8.429688 13.878906 -8.820312 13.859375 -9.1875 C 13.835938 -9.550781 13.753906 -9.882812 13.609375 -10.1875 C 13.460938 -10.488281 13.242188 -10.742188 12.953125 -10.953125 C 12.660156 -11.160156 12.304688 -11.316406 11.890625 -11.421875 C 11.140625 -11.597656 10.46875 -11.609375 9.875 -11.453125 C 9.28125 -11.304688 8.753906 -11.007812 8.296875 -10.5625 C 7.847656 -10.113281 7.460938 -9.523438 7.140625 -8.796875 C 6.816406 -8.066406 6.535156 -7.210938 6.296875 -6.234375 C 6.066406 -5.253906 5.9375 -4.363281 5.90625 -3.5625 C 5.882812 -2.757812 5.984375 -2.054688 6.203125 -1.453125 C 6.421875 -0.847656 6.773438 -0.347656 7.265625 0.046875 C 7.765625 0.453125 8.414062 0.75 9.21875 0.9375 C 9.46875 1 9.722656 1.046875 9.984375 1.078125 C 10.242188 1.117188 10.5 1.144531 10.75 1.15625 L 11.46875 -1.84375 C 11.59375 -2.382812 11.554688 -2.789062 11.359375 -3.0625 C 11.171875 -3.34375 10.835938 -3.535156 10.359375 -3.640625 L 10.078125 -3.71875 L 10.328125 -4.796875 L 16.75 -3.265625 L 16.5 -2.1875 L 16.25 -2.25 C 16.03125 -2.300781 15.835938 -2.320312 15.671875 -2.3125 C 15.515625 -2.300781 15.367188 -2.242188 15.234375 -2.140625 C 15.109375 -2.046875 15 -1.90625 14.90625 -1.71875 C 14.8125 -1.539062 14.726562 -1.300781 14.65625 -1 L 13.875 2.34375 C 12.988281 2.519531 12.117188 2.601562 11.265625 2.59375 C 10.410156 2.59375 9.519531 2.476562 8.59375 2.25 Z M 8.59375 2.25 "/></g></g></g><g fill="#000000" fill-opacity="1"><g transform="translate(213.368789, 114.297216)"><g><path d="M 8.390625 4.125 L 8.875 3.125 L 9.6875 3.53125 C 9.820312 3.59375 9.957031 3.640625 10.09375 3.671875 C 10.226562 3.703125 10.359375 3.695312 10.484375 3.65625 C 10.617188 3.613281 10.75 3.519531 10.875 3.375 C 11 3.238281 11.128906 3.035156 11.265625 2.765625 L 13.34375 -1.4375 L 8.421875 -3.859375 L 6.34375 0.34375 C 6.207031 0.613281 6.125 0.84375 6.09375 1.03125 C 6.070312 1.21875 6.082031 1.375 6.125 1.5 C 6.175781 1.632812 6.25 1.742188 6.34375 1.828125 C 6.445312 1.910156 6.566406 1.988281 6.703125 2.0625 L 7.515625 2.453125 L 7.03125 3.453125 L 0.515625 0.25 L 1 -0.75 L 1.796875 -0.359375 C 1.929688 -0.285156 2.0625 -0.234375 2.1875 -0.203125 C 2.320312 -0.171875 2.453125 -0.175781 2.578125 -0.21875 C 2.710938 -0.269531 2.84375 -0.363281 2.96875 -0.5 C 3.101562 -0.632812 3.238281 -0.835938 3.375 -1.109375 L 7.828125 -10.15625 C 7.953125 -10.414062 8.019531 -10.628906 8.03125 -10.796875 C 8.050781 -10.972656 8.035156 -11.125 7.984375 -11.25 C 7.941406 -11.382812 7.867188 -11.488281 7.765625 -11.5625 C 7.671875 -11.644531 7.554688 -11.722656 7.421875 -11.796875 L 6.625 -12.1875 L 7.125 -13.203125 L 13.640625 -10 L 13.140625 -8.984375 L 12.328125 -9.375 C 12.191406 -9.445312 12.0625 -9.5 11.9375 -9.53125 C 11.8125 -9.5625 11.679688 -9.550781 11.546875 -9.5 C 11.421875 -9.457031 11.289062 -9.367188 11.15625 -9.234375 C 11.03125 -9.109375 10.898438 -8.910156 10.765625 -8.640625 L 8.984375 -5 L 13.90625 -2.578125 L 15.6875 -6.21875 C 15.820312 -6.488281 15.90625 -6.710938 15.9375 -6.890625 C 15.96875 -7.066406 15.957031 -7.222656 15.90625 -7.359375 C 15.863281 -7.492188 15.785156 -7.601562 15.671875 -7.6875 C 15.566406 -7.769531 15.445312 -7.84375 15.3125 -7.90625 L 14.5 -8.3125 L 15 -9.328125 L 21.5 -6.125 L 21 -5.109375 L 20.21875 -5.5 C 20.082031 -5.5625 19.953125 -5.609375 19.828125 -5.640625 C 19.703125 -5.671875 19.570312 -5.664062 19.4375 -5.625 C 19.3125 -5.582031 19.1875 -5.492188 19.0625 -5.359375 C 18.9375 -5.222656 18.804688 -5.019531 18.671875 -4.75 L 14.203125 4.359375 C 14.078125 4.597656 14.003906 4.804688 13.984375 4.984375 C 13.960938 5.160156 13.976562 5.304688 14.03125 5.421875 C 14.082031 5.535156 14.15625 5.632812 14.25 5.71875 C 14.34375 5.800781 14.457031 5.875 14.59375 5.9375 L 15.375 6.328125 L 14.890625 7.328125 Z M 8.390625 4.125 "/></g></g></g><g fill="#000000" fill-opacity="1"><g transform="translate(229.310549, 122.737951)"><g/></g></g><g fill="#000000" fill-opacity="1"><g transform="translate(234.754441, 126.417269)"><g><path d="M 3.921875 3.9375 C 3.222656 3.289062 2.707031 2.6875 2.375 2.125 C 2.039062 1.570312 1.828125 1.0625 1.734375 0.59375 C 1.648438 0.125 1.664062 -0.289062 1.78125 -0.65625 C 1.90625 -1.019531 2.078125 -1.328125 2.296875 -1.578125 C 2.546875 -1.835938 2.800781 -2.007812 3.0625 -2.09375 C 3.332031 -2.1875 3.601562 -2.21875 3.875 -2.1875 C 4.144531 -2.15625 4.40625 -2.066406 4.65625 -1.921875 C 4.914062 -1.773438 5.160156 -1.597656 5.390625 -1.390625 C 4.984375 -0.941406 4.675781 -0.503906 4.46875 -0.078125 C 4.257812 0.347656 4.140625 0.757812 4.109375 1.15625 C 4.085938 1.550781 4.15625 1.925781 4.3125 2.28125 C 4.476562 2.632812 4.71875 2.953125 5.03125 3.234375 C 5.320312 3.503906 5.625 3.707031 5.9375 3.84375 C 6.257812 3.988281 6.570312 4.054688 6.875 4.046875 C 7.175781 4.046875 7.460938 3.984375 7.734375 3.859375 C 8.003906 3.742188 8.242188 3.570312 8.453125 3.34375 C 8.703125 3.070312 8.867188 2.785156 8.953125 2.484375 C 9.035156 2.179688 9.050781 1.84375 9 1.46875 C 8.945312 1.101562 8.832031 0.691406 8.65625 0.234375 C 8.476562 -0.222656 8.257812 -0.738281 8 -1.3125 C 7.675781 -2.03125 7.4375 -2.675781 7.28125 -3.25 C 7.125 -3.820312 7.054688 -4.347656 7.078125 -4.828125 C 7.097656 -5.304688 7.207031 -5.75 7.40625 -6.15625 C 7.601562 -6.5625 7.878906 -6.945312 8.234375 -7.3125 C 8.671875 -7.789062 9.160156 -8.128906 9.703125 -8.328125 C 10.253906 -8.535156 10.816406 -8.617188 11.390625 -8.578125 C 11.972656 -8.535156 12.5625 -8.375 13.15625 -8.09375 C 13.75 -7.8125 14.316406 -7.421875 14.859375 -6.921875 C 15.421875 -6.390625 15.867188 -5.890625 16.203125 -5.421875 C 16.535156 -4.953125 16.757812 -4.507812 16.875 -4.09375 C 16.988281 -3.6875 17.007812 -3.3125 16.9375 -2.96875 C 16.875 -2.632812 16.722656 -2.34375 16.484375 -2.09375 C 16.328125 -1.914062 16.132812 -1.785156 15.90625 -1.703125 C 15.6875 -1.617188 15.441406 -1.59375 15.171875 -1.625 C 14.898438 -1.65625 14.617188 -1.75 14.328125 -1.90625 C 14.035156 -2.0625 13.734375 -2.285156 13.421875 -2.578125 C 13.617188 -2.785156 13.800781 -3.039062 13.96875 -3.34375 C 14.144531 -3.644531 14.265625 -3.960938 14.328125 -4.296875 C 14.398438 -4.640625 14.394531 -4.976562 14.3125 -5.3125 C 14.238281 -5.644531 14.050781 -5.953125 13.75 -6.234375 C 13.550781 -6.410156 13.328125 -6.554688 13.078125 -6.671875 C 12.835938 -6.785156 12.59375 -6.84375 12.34375 -6.84375 C 12.101562 -6.851562 11.859375 -6.804688 11.609375 -6.703125 C 11.359375 -6.597656 11.128906 -6.429688 10.921875 -6.203125 C 10.710938 -5.984375 10.554688 -5.75 10.453125 -5.5 C 10.359375 -5.25 10.316406 -4.941406 10.328125 -4.578125 C 10.347656 -4.222656 10.429688 -3.800781 10.578125 -3.3125 C 10.734375 -2.832031 10.976562 -2.238281 11.3125 -1.53125 C 11.632812 -0.84375 11.878906 -0.210938 12.046875 0.359375 C 12.210938 0.941406 12.296875 1.46875 12.296875 1.9375 C 12.296875 2.414062 12.207031 2.859375 12.03125 3.265625 C 11.851562 3.671875 11.585938 4.0625 11.234375 4.4375 C 10.773438 4.9375 10.253906 5.300781 9.671875 5.53125 C 9.085938 5.757812 8.472656 5.851562 7.828125 5.8125 C 7.191406 5.769531 6.539062 5.59375 5.875 5.28125 C 5.21875 4.976562 4.566406 4.53125 3.921875 3.9375 Z M 3.921875 3.9375 "/></g></g></g><g fill="#000000" fill-opacity="1"><g transform="translate(244.314302, 135.276746)"><g><path d="M 6.5 6.28125 C 6.800781 6.6875 7.117188 7.007812 7.453125 7.25 C 7.796875 7.5 8.132812 7.695312 8.46875 7.84375 C 8.8125 7.988281 9.148438 8.082031 9.484375 8.125 C 9.816406 8.164062 10.128906 8.1875 10.421875 8.1875 C 10.429688 8.332031 10.382812 8.476562 10.28125 8.625 C 10.175781 8.78125 10.054688 8.910156 9.921875 9.015625 C 9.679688 9.191406 9.382812 9.3125 9.03125 9.375 C 8.675781 9.445312 8.28125 9.414062 7.84375 9.28125 C 7.40625 9.144531 6.929688 8.882812 6.421875 8.5 C 5.921875 8.125 5.398438 7.578125 4.859375 6.859375 C 4.140625 5.890625 3.65625 4.925781 3.40625 3.96875 C 3.164062 3.019531 3.132812 2.101562 3.3125 1.21875 C 3.5 0.34375 3.878906 -0.5 4.453125 -1.3125 C 5.035156 -2.125 5.789062 -2.875 6.71875 -3.5625 C 7.625 -4.25 8.546875 -4.75 9.484375 -5.0625 C 10.421875 -5.375 11.34375 -5.488281 12.25 -5.40625 C 13.15625 -5.320312 14.023438 -5.03125 14.859375 -4.53125 C 15.703125 -4.03125 16.476562 -3.300781 17.1875 -2.34375 C 17.664062 -1.707031 18.035156 -1.109375 18.296875 -0.546875 C 18.554688 0.015625 18.710938 0.515625 18.765625 0.953125 C 18.828125 1.398438 18.800781 1.789062 18.6875 2.125 C 18.570312 2.46875 18.375 2.738281 18.09375 2.9375 C 17.894531 3.09375 17.671875 3.191406 17.421875 3.234375 C 17.179688 3.273438 16.925781 3.257812 16.65625 3.1875 C 16.382812 3.113281 16.113281 2.96875 15.84375 2.75 C 15.582031 2.539062 15.320312 2.265625 15.0625 1.921875 C 15.34375 1.710938 15.597656 1.476562 15.828125 1.21875 C 16.066406 0.957031 16.242188 0.664062 16.359375 0.34375 C 16.472656 0.03125 16.515625 -0.289062 16.484375 -0.625 C 16.453125 -0.96875 16.300781 -1.316406 16.03125 -1.671875 C 15.632812 -2.203125 15.1875 -2.566406 14.6875 -2.765625 C 14.195312 -2.972656 13.648438 -3.023438 13.046875 -2.921875 C 12.453125 -2.816406 11.800781 -2.570312 11.09375 -2.1875 C 10.382812 -1.8125 9.628906 -1.320312 8.828125 -0.71875 C 8.015625 -0.113281 7.347656 0.472656 6.828125 1.046875 C 6.316406 1.617188 5.957031 2.1875 5.75 2.75 C 5.550781 3.3125 5.507812 3.882812 5.625 4.46875 C 5.738281 5.050781 6.03125 5.65625 6.5 6.28125 Z M 6.5 6.28125 "/></g></g></g><g fill="#000000" fill-opacity="1"><g transform="translate(253.103591, 146.890069)"><g><path d="M 3.890625 8.515625 L 4.90625 8.046875 L 5.28125 8.859375 C 5.34375 8.992188 5.414062 9.113281 5.5 9.21875 C 5.582031 9.332031 5.6875 9.410156 5.8125 9.453125 C 5.9375 9.503906 6.09375 9.515625 6.28125 9.484375 C 6.46875 9.460938 6.703125 9.390625 6.984375 9.265625 L 11.234375 7.3125 L 8.953125 2.328125 L 4.703125 4.28125 C 4.421875 4.40625 4.210938 4.53125 4.078125 4.65625 C 3.941406 4.789062 3.847656 4.921875 3.796875 5.046875 C 3.742188 5.171875 3.726562 5.296875 3.75 5.421875 C 3.78125 5.554688 3.828125 5.691406 3.890625 5.828125 L 4.265625 6.65625 L 3.25 7.125 L 0.234375 0.53125 L 1.25 0.0625 L 1.625 0.859375 C 1.6875 0.992188 1.753906 1.113281 1.828125 1.21875 C 1.910156 1.332031 2.015625 1.410156 2.140625 1.453125 C 2.273438 1.503906 2.4375 1.519531 2.625 1.5 C 2.8125 1.476562 3.046875 1.40625 3.328125 1.28125 L 12.5 -2.921875 C 12.757812 -3.035156 12.953125 -3.15625 13.078125 -3.28125 C 13.203125 -3.40625 13.28125 -3.53125 13.3125 -3.65625 C 13.351562 -3.789062 13.363281 -3.921875 13.34375 -4.046875 C 13.320312 -4.171875 13.28125 -4.300781 13.21875 -4.4375 L 12.84375 -5.234375 L 13.859375 -5.703125 L 16.875 0.890625 L 15.859375 1.359375 L 15.484375 0.53125 C 15.421875 0.394531 15.347656 0.269531 15.265625 0.15625 C 15.179688 0.0507812 15.078125 -0.0195312 14.953125 -0.0625 C 14.835938 -0.101562 14.6875 -0.113281 14.5 -0.09375 C 14.3125 -0.0820312 14.078125 -0.015625 13.796875 0.109375 L 10.125 1.796875 L 12.40625 6.78125 L 16.078125 5.09375 C 16.359375 4.96875 16.566406 4.84375 16.703125 4.71875 C 16.835938 4.601562 16.925781 4.476562 16.96875 4.34375 C 17.019531 4.21875 17.03125 4.085938 17 3.953125 C 16.976562 3.828125 16.9375 3.695312 16.875 3.5625 L 16.5 2.75 L 17.515625 2.28125 L 20.53125 8.859375 L 19.515625 9.328125 L 19.15625 8.53125 C 19.09375 8.394531 19.015625 8.269531 18.921875 8.15625 C 18.835938 8.050781 18.734375 7.972656 18.609375 7.921875 C 18.484375 7.878906 18.328125 7.867188 18.140625 7.890625 C 17.960938 7.921875 17.734375 8 17.453125 8.125 L 8.234375 12.34375 C 7.992188 12.457031 7.8125 12.570312 7.6875 12.6875 C 7.5625 12.8125 7.476562 12.9375 7.4375 13.0625 C 7.40625 13.1875 7.398438 13.3125 7.421875 13.4375 C 7.453125 13.5625 7.5 13.691406 7.5625 13.828125 L 7.921875 14.625 L 6.90625 15.09375 Z M 3.890625 8.515625 "/></g></g></g><g fill="#000000" fill-opacity="1"><g transform="translate(260.349691, 162.936747)"><g><path d="M 10.453125 13.53125 C 9.316406 13.757812 8.253906 13.816406 7.265625 13.703125 C 6.273438 13.585938 5.390625 13.300781 4.609375 12.84375 C 3.828125 12.382812 3.164062 11.765625 2.625 10.984375 C 2.082031 10.210938 1.695312 9.265625 1.46875 8.140625 C 1.21875 6.972656 1.1875 5.910156 1.375 4.953125 C 1.5625 4.003906 1.925781 3.171875 2.46875 2.453125 C 3.007812 1.742188 3.71875 1.148438 4.59375 0.671875 C 5.46875 0.191406 6.472656 -0.160156 7.609375 -0.390625 C 8.742188 -0.617188 9.800781 -0.6875 10.78125 -0.59375 C 11.769531 -0.5 12.648438 -0.226562 13.421875 0.21875 C 14.203125 0.664062 14.863281 1.285156 15.40625 2.078125 C 15.945312 2.878906 16.335938 3.875 16.578125 5.0625 C 16.804688 6.164062 16.828125 7.179688 16.640625 8.109375 C 16.460938 9.046875 16.101562 9.875 15.5625 10.59375 C 15.019531 11.320312 14.316406 11.9375 13.453125 12.4375 C 12.597656 12.9375 11.597656 13.300781 10.453125 13.53125 Z M 8.296875 3.078125 C 7.304688 3.285156 6.4375 3.53125 5.6875 3.8125 C 4.945312 4.09375 4.34375 4.425781 3.875 4.8125 C 3.40625 5.207031 3.070312 5.65625 2.875 6.15625 C 2.6875 6.65625 2.660156 7.222656 2.796875 7.859375 C 2.921875 8.503906 3.171875 9.019531 3.546875 9.40625 C 3.921875 9.789062 4.398438 10.066406 4.984375 10.234375 C 5.578125 10.398438 6.269531 10.460938 7.0625 10.421875 C 7.863281 10.390625 8.757812 10.269531 9.75 10.0625 C 10.726562 9.863281 11.585938 9.625 12.328125 9.34375 C 13.078125 9.0625 13.6875 8.726562 14.15625 8.34375 C 14.632812 7.957031 14.96875 7.515625 15.15625 7.015625 C 15.34375 6.523438 15.375 5.960938 15.25 5.328125 C 15.113281 4.679688 14.859375 4.160156 14.484375 3.765625 C 14.117188 3.378906 13.640625 3.097656 13.046875 2.921875 C 12.453125 2.753906 11.753906 2.6875 10.953125 2.71875 C 10.160156 2.757812 9.273438 2.878906 8.296875 3.078125 Z M 8.296875 3.078125 "/></g></g></g><g fill="#000000" fill-opacity="1"><g transform="translate(263.719339, 179.570085)"><g><path d="M 7.21875 15.5 C 6.0625 15.476562 5.007812 15.300781 4.0625 14.96875 C 3.125 14.644531 2.320312 14.171875 1.65625 13.546875 C 0.988281 12.929688 0.476562 12.179688 0.125 11.296875 C -0.21875 10.421875 -0.378906 9.410156 -0.359375 8.265625 C -0.335938 7.066406 -0.132812 6.023438 0.25 5.140625 C 0.632812 4.253906 1.171875 3.523438 1.859375 2.953125 C 2.546875 2.378906 3.367188 1.953125 4.328125 1.671875 C 5.296875 1.398438 6.359375 1.273438 7.515625 1.296875 C 8.671875 1.316406 9.71875 1.484375 10.65625 1.796875 C 11.59375 2.109375 12.390625 2.566406 13.046875 3.171875 C 13.710938 3.773438 14.21875 4.523438 14.5625 5.421875 C 14.914062 6.328125 15.082031 7.382812 15.0625 8.59375 C 15.039062 9.71875 14.835938 10.710938 14.453125 11.578125 C 14.066406 12.453125 13.53125 13.179688 12.84375 13.765625 C 12.15625 14.359375 11.335938 14.800781 10.390625 15.09375 C 9.441406 15.382812 8.382812 15.519531 7.21875 15.5 Z M 7.421875 4.828125 C 6.410156 4.804688 5.507812 4.851562 4.71875 4.96875 C 3.9375 5.09375 3.269531 5.289062 2.71875 5.5625 C 2.175781 5.832031 1.753906 6.191406 1.453125 6.640625 C 1.160156 7.085938 1.007812 7.632812 1 8.28125 C 0.988281 8.9375 1.117188 9.492188 1.390625 9.953125 C 1.671875 10.410156 2.078125 10.785156 2.609375 11.078125 C 3.148438 11.378906 3.8125 11.597656 4.59375 11.734375 C 5.375 11.867188 6.269531 11.945312 7.28125 11.96875 C 8.28125 11.988281 9.175781 11.941406 9.96875 11.828125 C 10.757812 11.722656 11.425781 11.535156 11.96875 11.265625 C 12.519531 10.992188 12.941406 10.632812 13.234375 10.1875 C 13.535156 9.75 13.691406 9.207031 13.703125 8.5625 C 13.710938 7.90625 13.578125 7.34375 13.296875 6.875 C 13.023438 6.414062 12.617188 6.035156 12.078125 5.734375 C 11.546875 5.441406 10.882812 5.222656 10.09375 5.078125 C 9.3125 4.929688 8.421875 4.847656 7.421875 4.828125 Z M 7.421875 4.828125 "/></g></g></g><g fill="#000000" fill-opacity="1"><g transform="translate(263.185775, 196.633598)"><g><path d="M -0.125 0.5625 L 0.953125 0.8125 L 0.75 1.6875 C 0.71875 1.832031 0.703125 1.972656 0.703125 2.109375 C 0.703125 2.242188 0.738281 2.363281 0.8125 2.46875 C 0.894531 2.582031 1.015625 2.6875 1.171875 2.78125 C 1.335938 2.882812 1.566406 2.96875 1.859375 3.03125 L 11.640625 5.28125 C 11.929688 5.34375 12.164062 5.363281 12.34375 5.34375 C 12.53125 5.332031 12.679688 5.289062 12.796875 5.21875 C 12.910156 5.15625 13 5.0625 13.0625 4.9375 C 13.125 4.8125 13.171875 4.675781 13.203125 4.53125 L 13.40625 3.65625 L 14.484375 3.90625 L 12.859375 10.96875 L 11.78125 10.71875 L 11.984375 9.875 C 12.015625 9.726562 12.03125 9.585938 12.03125 9.453125 C 12.03125 9.316406 11.992188 9.191406 11.921875 9.078125 C 11.859375 8.960938 11.75 8.859375 11.59375 8.765625 C 11.445312 8.679688 11.238281 8.609375 10.96875 8.546875 L -0.0625 6.015625 L -0.9375 9.8125 C -1.039062 10.289062 -0.972656 10.695312 -0.734375 11.03125 C -0.492188 11.375 -0.09375 11.664062 0.46875 11.90625 L 1.921875 12.609375 L 1.65625 13.75 L -2.875 12.546875 Z M -0.125 0.5625 "/></g></g></g><g fill="#000000" fill-opacity="1"><g transform="translate(125.18226, 255.754491)"><g><path d="M 5.4375 2.5625 L 8.765625 5.125 C 8.929688 5.25 9.097656 5.328125 9.265625 5.359375 C 9.429688 5.390625 9.601562 5.378906 9.78125 5.328125 C 9.957031 5.285156 10.128906 5.207031 10.296875 5.09375 C 10.460938 4.976562 10.628906 4.84375 10.796875 4.6875 L 11.53125 4 L 12.6875 4.875 L 10.203125 7.84375 L 0.453125 0.359375 L 1.125 -0.515625 L 1.84375 0.015625 C 1.957031 0.109375 2.070312 0.179688 2.1875 0.234375 C 2.3125 0.285156 2.4375 0.304688 2.5625 0.296875 C 2.695312 0.296875 2.835938 0.242188 2.984375 0.140625 C 3.128906 0.046875 3.285156 -0.109375 3.453125 -0.328125 L 9.640625 -8.375 C 9.828125 -8.613281 9.953125 -8.816406 10.015625 -8.984375 C 10.078125 -9.160156 10.097656 -9.3125 10.078125 -9.4375 C 10.066406 -9.570312 10.015625 -9.691406 9.921875 -9.796875 C 9.835938 -9.910156 9.738281 -10.015625 9.625 -10.109375 L 8.90625 -10.640625 L 9.59375 -11.515625 L 18.84375 -4.421875 L 16.546875 -1.3125 L 15.375 -2.203125 L 15.890625 -3.046875 C 16.160156 -3.484375 16.300781 -3.875 16.3125 -4.21875 C 16.320312 -4.5625 16.15625 -4.863281 15.8125 -5.125 L 13.015625 -7.28125 L 9.8125 -3.125 L 13.75 -0.09375 L 12.96875 0.90625 L 9.03125 -2.125 Z M 5.4375 2.5625 "/></g></g></g><g fill="#000000" fill-opacity="1"><g transform="translate(139.002504, 265.919382)"><g><path d="M 4.828125 2.75 C 3.984375 2.3125 3.328125 1.863281 2.859375 1.40625 C 2.390625 0.957031 2.050781 0.519531 1.84375 0.09375 C 1.632812 -0.320312 1.535156 -0.722656 1.546875 -1.109375 C 1.554688 -1.492188 1.640625 -1.832031 1.796875 -2.125 C 1.960938 -2.445312 2.164062 -2.6875 2.40625 -2.84375 C 2.644531 -3 2.894531 -3.097656 3.15625 -3.140625 C 3.425781 -3.179688 3.703125 -3.164062 3.984375 -3.09375 C 4.273438 -3.019531 4.550781 -2.910156 4.8125 -2.765625 C 4.539062 -2.234375 4.363281 -1.734375 4.28125 -1.265625 C 4.195312 -0.804688 4.195312 -0.378906 4.28125 0.015625 C 4.363281 0.410156 4.523438 0.753906 4.765625 1.046875 C 5.015625 1.347656 5.328125 1.59375 5.703125 1.78125 C 6.054688 1.96875 6.398438 2.082031 6.734375 2.125 C 7.078125 2.175781 7.394531 2.160156 7.6875 2.078125 C 7.976562 2.003906 8.238281 1.867188 8.46875 1.671875 C 8.707031 1.472656 8.898438 1.238281 9.046875 0.96875 C 9.210938 0.644531 9.296875 0.328125 9.296875 0.015625 C 9.296875 -0.296875 9.21875 -0.617188 9.0625 -0.953125 C 8.914062 -1.296875 8.695312 -1.664062 8.40625 -2.0625 C 8.113281 -2.46875 7.765625 -2.910156 7.359375 -3.390625 C 6.847656 -4.003906 6.441406 -4.566406 6.140625 -5.078125 C 5.835938 -5.585938 5.632812 -6.078125 5.53125 -6.546875 C 5.4375 -7.023438 5.425781 -7.476562 5.5 -7.90625 C 5.582031 -8.34375 5.742188 -8.789062 5.984375 -9.25 C 6.273438 -9.820312 6.65625 -10.28125 7.125 -10.625 C 7.601562 -10.96875 8.128906 -11.191406 8.703125 -11.296875 C 9.285156 -11.410156 9.894531 -11.410156 10.53125 -11.296875 C 11.175781 -11.191406 11.828125 -10.96875 12.484375 -10.625 C 13.171875 -10.269531 13.734375 -9.90625 14.171875 -9.53125 C 14.617188 -9.164062 14.953125 -8.800781 15.171875 -8.4375 C 15.398438 -8.070312 15.519531 -7.71875 15.53125 -7.375 C 15.550781 -7.03125 15.484375 -6.707031 15.328125 -6.40625 C 15.222656 -6.195312 15.070312 -6.019531 14.875 -5.875 C 14.6875 -5.726562 14.457031 -5.632812 14.1875 -5.59375 C 13.925781 -5.5625 13.628906 -5.582031 13.296875 -5.65625 C 12.972656 -5.726562 12.625 -5.863281 12.25 -6.0625 C 12.382812 -6.3125 12.492188 -6.601562 12.578125 -6.9375 C 12.660156 -7.28125 12.691406 -7.617188 12.671875 -7.953125 C 12.648438 -8.296875 12.554688 -8.617188 12.390625 -8.921875 C 12.222656 -9.234375 11.960938 -9.484375 11.609375 -9.671875 C 11.367188 -9.796875 11.113281 -9.875 10.84375 -9.90625 C 10.570312 -9.945312 10.316406 -9.9375 10.078125 -9.875 C 9.835938 -9.820312 9.613281 -9.710938 9.40625 -9.546875 C 9.195312 -9.378906 9.023438 -9.160156 8.890625 -8.890625 C 8.742188 -8.617188 8.65625 -8.347656 8.625 -8.078125 C 8.59375 -7.804688 8.632812 -7.5 8.75 -7.15625 C 8.863281 -6.820312 9.054688 -6.441406 9.328125 -6.015625 C 9.609375 -5.585938 10 -5.078125 10.5 -4.484375 C 11 -3.910156 11.398438 -3.367188 11.703125 -2.859375 C 12.015625 -2.347656 12.234375 -1.863281 12.359375 -1.40625 C 12.484375 -0.945312 12.515625 -0.492188 12.453125 -0.046875 C 12.390625 0.390625 12.242188 0.835938 12.015625 1.296875 C 11.703125 1.890625 11.296875 2.375 10.796875 2.75 C 10.304688 3.125 9.742188 3.375 9.109375 3.5 C 8.472656 3.632812 7.796875 3.640625 7.078125 3.515625 C 6.359375 3.398438 5.609375 3.144531 4.828125 2.75 Z M 4.828125 2.75 "/></g></g></g><g fill="#000000" fill-opacity="1"><g transform="translate(153.100149, 272.9675)"><g><path d="M 8.859375 0.15625 C 8.773438 0.445312 8.734375 0.679688 8.734375 0.859375 C 8.734375 1.046875 8.765625 1.203125 8.828125 1.328125 C 8.890625 1.460938 8.976562 1.5625 9.09375 1.625 C 9.207031 1.695312 9.335938 1.753906 9.484375 1.796875 L 10.328125 2.0625 L 10 3.125 L 3.09375 0.96875 L 3.421875 -0.09375 L 4.25 0.15625 C 4.394531 0.207031 4.535156 0.238281 4.671875 0.25 C 4.804688 0.257812 4.929688 0.226562 5.046875 0.15625 C 5.171875 0.09375 5.285156 -0.0078125 5.390625 -0.15625 C 5.503906 -0.3125 5.601562 -0.535156 5.6875 -0.828125 L 9.03125 -11.53125 L 7.421875 -12.03125 C 7.117188 -12.125 6.859375 -12.171875 6.640625 -12.171875 C 6.421875 -12.171875 6.226562 -12.128906 6.0625 -12.046875 C 5.894531 -11.960938 5.753906 -11.84375 5.640625 -11.6875 C 5.523438 -11.53125 5.421875 -11.34375 5.328125 -11.125 L 4.796875 -9.921875 L 3.4375 -10.34375 L 4.765625 -14.203125 L 17.25 -10.3125 L 16.140625 -6.375 L 14.796875 -6.796875 L 15.03125 -8.09375 C 15.070312 -8.320312 15.085938 -8.535156 15.078125 -8.734375 C 15.078125 -8.929688 15.03125 -9.109375 14.9375 -9.265625 C 14.851562 -9.429688 14.71875 -9.578125 14.53125 -9.703125 C 14.351562 -9.828125 14.109375 -9.941406 13.796875 -10.046875 L 12.203125 -10.546875 Z M 8.859375 0.15625 "/></g></g></g><g fill="#000000" fill-opacity="1"><g transform="translate(169.732249, 277.906761)"><g><path d="M 15.671875 -6.171875 C 15.546875 -5.035156 15.273438 -4.007812 14.859375 -3.09375 C 14.453125 -2.175781 13.90625 -1.410156 13.21875 -0.796875 C 12.53125 -0.179688 11.703125 0.265625 10.734375 0.546875 C 9.773438 0.828125 8.6875 0.90625 7.46875 0.78125 L 0.578125 0.0625 L 0.6875 -1.046875 L 1.5625 -0.953125 C 1.71875 -0.941406 1.863281 -0.941406 2 -0.953125 C 2.132812 -0.972656 2.253906 -1.023438 2.359375 -1.109375 C 2.460938 -1.191406 2.550781 -1.316406 2.625 -1.484375 C 2.707031 -1.660156 2.765625 -1.898438 2.796875 -2.203125 L 3.84375 -12.265625 C 3.875 -12.535156 3.867188 -12.753906 3.828125 -12.921875 C 3.785156 -13.097656 3.71875 -13.234375 3.625 -13.328125 C 3.539062 -13.429688 3.429688 -13.503906 3.296875 -13.546875 C 3.171875 -13.597656 3.035156 -13.628906 2.890625 -13.640625 L 2.015625 -13.734375 L 2.140625 -14.84375 L 9.03125 -14.125 C 10.1875 -14 11.207031 -13.734375 12.09375 -13.328125 C 12.976562 -12.929688 13.703125 -12.398438 14.265625 -11.734375 C 14.828125 -11.066406 15.226562 -10.269531 15.46875 -9.34375 C 15.71875 -8.414062 15.785156 -7.359375 15.671875 -6.171875 Z M 12.140625 -6.53125 C 12.347656 -8.519531 12.132812 -10.039062 11.5 -11.09375 C 10.875 -12.144531 9.851562 -12.742188 8.4375 -12.890625 L 7.234375 -13.015625 L 5.953125 -0.6875 L 7.140625 -0.5625 C 7.847656 -0.488281 8.488281 -0.566406 9.0625 -0.796875 C 9.644531 -1.035156 10.144531 -1.414062 10.5625 -1.9375 C 10.976562 -2.46875 11.316406 -3.117188 11.578125 -3.890625 C 11.847656 -4.660156 12.035156 -5.539062 12.140625 -6.53125 Z M 12.140625 -6.53125 "/></g></g></g><g fill="#000000" fill-opacity="1"><g transform="translate(189.054105, 279.287437)"><g><path d="M 1.390625 -1.578125 C 1.367188 -1.898438 1.394531 -2.171875 1.46875 -2.390625 C 1.550781 -2.617188 1.664062 -2.796875 1.8125 -2.921875 C 1.957031 -3.054688 2.132812 -3.15625 2.34375 -3.21875 C 2.550781 -3.289062 2.773438 -3.335938 3.015625 -3.359375 C 3.242188 -3.367188 3.460938 -3.347656 3.671875 -3.296875 C 3.890625 -3.253906 4.078125 -3.171875 4.234375 -3.046875 C 4.398438 -2.929688 4.535156 -2.765625 4.640625 -2.546875 C 4.742188 -2.335938 4.804688 -2.070312 4.828125 -1.75 C 4.847656 -1.4375 4.816406 -1.171875 4.734375 -0.953125 C 4.648438 -0.742188 4.53125 -0.570312 4.375 -0.4375 C 4.226562 -0.300781 4.050781 -0.195312 3.84375 -0.125 C 3.644531 -0.0625 3.429688 -0.0234375 3.203125 -0.015625 C 2.960938 0.00390625 2.734375 -0.00390625 2.515625 -0.046875 C 2.296875 -0.0976562 2.109375 -0.1875 1.953125 -0.3125 C 1.796875 -0.4375 1.664062 -0.597656 1.5625 -0.796875 C 1.46875 -1.003906 1.410156 -1.265625 1.390625 -1.578125 Z M 0.96875 -9.8125 C 0.945312 -10.132812 0.972656 -10.40625 1.046875 -10.625 C 1.128906 -10.84375 1.242188 -11.019531 1.390625 -11.15625 C 1.535156 -11.289062 1.710938 -11.390625 1.921875 -11.453125 C 2.128906 -11.523438 2.351562 -11.570312 2.59375 -11.59375 C 2.820312 -11.601562 3.039062 -11.582031 3.25 -11.53125 C 3.46875 -11.488281 3.65625 -11.40625 3.8125 -11.28125 C 3.976562 -11.15625 4.113281 -10.988281 4.21875 -10.78125 C 4.320312 -10.570312 4.382812 -10.304688 4.40625 -9.984375 C 4.414062 -9.671875 4.378906 -9.40625 4.296875 -9.1875 C 4.210938 -8.96875 4.097656 -8.789062 3.953125 -8.65625 C 3.804688 -8.519531 3.628906 -8.414062 3.421875 -8.34375 C 3.210938 -8.28125 2.992188 -8.242188 2.765625 -8.234375 C 2.523438 -8.210938 2.296875 -8.222656 2.078125 -8.265625 C 1.867188 -8.316406 1.679688 -8.40625 1.515625 -8.53125 C 1.359375 -8.65625 1.226562 -8.820312 1.125 -9.03125 C 1.03125 -9.238281 0.976562 -9.5 0.96875 -9.8125 Z M 0.96875 -9.8125 "/></g></g></g><g fill="#000000" fill-opacity="1"><g transform="translate(198.532095, 278.768201)"><g><path d="M 7.9375 -13.390625 C 8 -13.054688 8.019531 -12.726562 8 -12.40625 C 7.988281 -12.09375 7.929688 -11.757812 7.828125 -11.40625 C 7.722656 -11.050781 7.570312 -10.671875 7.375 -10.265625 C 7.175781 -9.859375 6.914062 -9.398438 6.59375 -8.890625 C 6.269531 -8.390625 5.894531 -7.828125 5.46875 -7.203125 C 5.039062 -6.578125 4.539062 -5.875 3.96875 -5.09375 L 2.25 -2.78125 L 7.0625 -3.65625 C 7.488281 -3.738281 7.828125 -3.925781 8.078125 -4.21875 C 8.335938 -4.507812 8.484375 -4.90625 8.515625 -5.40625 L 8.578125 -6.046875 L 9.796875 -6.28125 L 10.484375 -1.9375 L 0.71875 -0.140625 L 0.328125 -2.265625 L 2.8125 -5.9375 C 3.332031 -6.707031 3.75 -7.390625 4.0625 -7.984375 C 4.375 -8.585938 4.601562 -9.148438 4.75 -9.671875 C 4.894531 -10.191406 4.972656 -10.691406 4.984375 -11.171875 C 4.992188 -11.660156 4.945312 -12.171875 4.84375 -12.703125 C 4.695312 -13.484375 4.445312 -14.03125 4.09375 -14.34375 C 3.75 -14.65625 3.328125 -14.765625 2.828125 -14.671875 C 2.117188 -14.546875 1.675781 -14.15625 1.5 -13.5 C 1.332031 -12.84375 1.359375 -11.925781 1.578125 -10.75 C 1.191406 -10.675781 0.828125 -10.644531 0.484375 -10.65625 C 0.148438 -10.675781 -0.144531 -10.742188 -0.40625 -10.859375 C -0.675781 -10.972656 -0.898438 -11.148438 -1.078125 -11.390625 C -1.253906 -11.628906 -1.375 -11.929688 -1.4375 -12.296875 C -1.507812 -12.671875 -1.476562 -13.039062 -1.34375 -13.40625 C -1.207031 -13.78125 -0.976562 -14.128906 -0.65625 -14.453125 C -0.332031 -14.785156 0.0976562 -15.078125 0.640625 -15.328125 C 1.179688 -15.585938 1.832031 -15.785156 2.59375 -15.921875 C 3.363281 -16.066406 4.054688 -16.113281 4.671875 -16.0625 C 5.285156 -16.007812 5.820312 -15.875 6.28125 -15.65625 C 6.738281 -15.4375 7.101562 -15.132812 7.375 -14.75 C 7.65625 -14.363281 7.84375 -13.910156 7.9375 -13.390625 Z M 7.9375 -13.390625 "/></g></g></g><g fill="#000000" fill-opacity="1"><g transform="translate(213.306641, 275.771827)"><g><path d="M 7.84375 -10.796875 C 8.226562 -9.703125 8.488281 -8.675781 8.625 -7.71875 C 8.769531 -6.757812 8.757812 -5.890625 8.59375 -5.109375 C 8.425781 -4.335938 8.097656 -3.664062 7.609375 -3.09375 C 7.128906 -2.53125 6.457031 -2.097656 5.59375 -1.796875 C 4.6875 -1.472656 3.863281 -1.375 3.125 -1.5 C 2.382812 -1.625 1.707031 -1.9375 1.09375 -2.4375 C 0.488281 -2.9375 -0.0546875 -3.601562 -0.546875 -4.4375 C -1.035156 -5.28125 -1.472656 -6.25 -1.859375 -7.34375 C -2.253906 -8.425781 -2.523438 -9.441406 -2.671875 -10.390625 C -2.828125 -11.335938 -2.820312 -12.191406 -2.65625 -12.953125 C -2.5 -13.722656 -2.171875 -14.390625 -1.671875 -14.953125 C -1.179688 -15.515625 -0.484375 -15.957031 0.421875 -16.28125 C 1.273438 -16.582031 2.070312 -16.675781 2.8125 -16.5625 C 3.550781 -16.445312 4.222656 -16.140625 4.828125 -15.640625 C 5.441406 -15.148438 6 -14.492188 6.5 -13.671875 C 7 -12.847656 7.445312 -11.890625 7.84375 -10.796875 Z M 1.203125 -8.421875 C 1.546875 -7.472656 1.875 -6.632812 2.1875 -5.90625 C 2.5 -5.175781 2.8125 -4.578125 3.125 -4.109375 C 3.445312 -3.648438 3.769531 -3.328125 4.09375 -3.140625 C 4.414062 -2.960938 4.765625 -2.941406 5.140625 -3.078125 C 5.503906 -3.203125 5.753906 -3.4375 5.890625 -3.78125 C 6.023438 -4.132812 6.066406 -4.585938 6.015625 -5.140625 C 5.960938 -5.703125 5.828125 -6.363281 5.609375 -7.125 C 5.398438 -7.894531 5.125 -8.753906 4.78125 -9.703125 C 4.445312 -10.640625 4.125 -11.460938 3.8125 -12.171875 C 3.5 -12.890625 3.1875 -13.476562 2.875 -13.9375 C 2.5625 -14.40625 2.242188 -14.734375 1.921875 -14.921875 C 1.597656 -15.109375 1.253906 -15.132812 0.890625 -15 C 0.523438 -14.875 0.269531 -14.632812 0.125 -14.28125 C -0.0078125 -13.925781 -0.0507812 -13.46875 0 -12.90625 C 0.0390625 -12.351562 0.164062 -11.703125 0.375 -10.953125 C 0.59375 -10.203125 0.867188 -9.359375 1.203125 -8.421875 Z M 1.203125 -8.421875 "/></g></g></g><g fill="#000000" fill-opacity="1"><g transform="translate(227.406484, 270.436951)"><g><path d="M 3.609375 -3.453125 C 3.910156 -3.617188 4.171875 -3.820312 4.390625 -4.0625 C 4.617188 -4.3125 4.769531 -4.601562 4.84375 -4.9375 C 4.925781 -5.269531 4.925781 -5.660156 4.84375 -6.109375 C 4.757812 -6.554688 4.5625 -7.0625 4.25 -7.625 C 3.738281 -8.53125 3.140625 -9.085938 2.453125 -9.296875 C 1.773438 -9.503906 1.039062 -9.390625 0.25 -8.953125 C 0.0195312 -8.828125 -0.1875 -8.703125 -0.375 -8.578125 C -0.5625 -8.460938 -0.722656 -8.34375 -0.859375 -8.21875 C -1.003906 -8.101562 -1.140625 -7.984375 -1.265625 -7.859375 C -1.390625 -7.742188 -1.507812 -7.625 -1.625 -7.5 L -2.625 -7.359375 L -5.5625 -14.046875 L 1.375 -17.875 L 3.3125 -14.609375 L 2.265625 -14.03125 L 1.78125 -14.5625 C 1.6875 -14.644531 1.597656 -14.71875 1.515625 -14.78125 C 1.429688 -14.851562 1.34375 -14.898438 1.25 -14.921875 C 1.15625 -14.953125 1.050781 -14.957031 0.9375 -14.9375 C 0.820312 -14.914062 0.691406 -14.867188 0.546875 -14.796875 L -3.28125 -12.671875 C -3.28125 -12.671875 -3.253906 -12.613281 -3.203125 -12.5 C -3.160156 -12.394531 -3.097656 -12.257812 -3.015625 -12.09375 C -2.941406 -11.925781 -2.851562 -11.734375 -2.75 -11.515625 C -2.65625 -11.304688 -2.5625 -11.09375 -2.46875 -10.875 L -1.703125 -9.125 C -1.617188 -9.207031 -1.507812 -9.304688 -1.375 -9.421875 C -1.238281 -9.535156 -1.085938 -9.65625 -0.921875 -9.78125 C -0.765625 -9.90625 -0.585938 -10.03125 -0.390625 -10.15625 C -0.191406 -10.289062 0 -10.410156 0.1875 -10.515625 C 0.894531 -10.898438 1.578125 -11.171875 2.234375 -11.328125 C 2.898438 -11.484375 3.53125 -11.507812 4.125 -11.40625 C 4.71875 -11.3125 5.257812 -11.082031 5.75 -10.71875 C 6.25 -10.351562 6.679688 -9.84375 7.046875 -9.1875 C 7.484375 -8.394531 7.707031 -7.644531 7.71875 -6.9375 C 7.726562 -6.238281 7.59375 -5.597656 7.3125 -5.015625 C 7.039062 -4.429688 6.65625 -3.910156 6.15625 -3.453125 C 5.664062 -3.003906 5.144531 -2.625 4.59375 -2.3125 C 3.90625 -1.9375 3.285156 -1.675781 2.734375 -1.53125 C 2.191406 -1.382812 1.710938 -1.332031 1.296875 -1.375 C 0.890625 -1.414062 0.546875 -1.53125 0.265625 -1.71875 C -0.015625 -1.90625 -0.234375 -2.144531 -0.390625 -2.4375 C -0.628906 -2.863281 -0.671875 -3.253906 -0.515625 -3.609375 C -0.367188 -3.972656 -0.0703125 -4.28125 0.375 -4.53125 C 0.519531 -4.257812 0.695312 -4.007812 0.90625 -3.78125 C 1.125 -3.5625 1.367188 -3.390625 1.640625 -3.265625 C 1.921875 -3.148438 2.222656 -3.097656 2.546875 -3.109375 C 2.878906 -3.128906 3.234375 -3.242188 3.609375 -3.453125 Z M 3.609375 -3.453125 "/></g></g></g><g fill="#000000" fill-opacity="1"><g transform="translate(240.464047, 262.902656)"><g><path d="M -1.890625 -3.390625 C -2.160156 -3.742188 -2.347656 -4.101562 -2.453125 -4.46875 C -2.566406 -4.84375 -2.601562 -5.234375 -2.5625 -5.640625 C -2.53125 -6.046875 -2.441406 -6.460938 -2.296875 -6.890625 C -2.160156 -7.316406 -1.988281 -7.769531 -1.78125 -8.25 C -2.738281 -8.101562 -3.582031 -8.132812 -4.3125 -8.34375 C -5.039062 -8.550781 -5.65625 -8.976562 -6.15625 -9.625 C -6.457031 -10 -6.679688 -10.421875 -6.828125 -10.890625 C -6.984375 -11.359375 -7.019531 -11.847656 -6.9375 -12.359375 C -6.863281 -12.878906 -6.644531 -13.414062 -6.28125 -13.96875 C -5.925781 -14.519531 -5.394531 -15.078125 -4.6875 -15.640625 C -4.101562 -16.097656 -3.535156 -16.425781 -2.984375 -16.625 C -2.441406 -16.820312 -1.921875 -16.910156 -1.421875 -16.890625 C -0.929688 -16.867188 -0.46875 -16.738281 -0.03125 -16.5 C 0.394531 -16.257812 0.769531 -15.929688 1.09375 -15.515625 C 1.351562 -15.191406 1.523438 -14.859375 1.609375 -14.515625 C 1.703125 -14.179688 1.734375 -13.835938 1.703125 -13.484375 C 1.671875 -13.128906 1.585938 -12.753906 1.453125 -12.359375 C 1.328125 -11.960938 1.160156 -11.539062 0.953125 -11.09375 C 1.640625 -11.25 2.25 -11.34375 2.78125 -11.375 C 3.320312 -11.40625 3.804688 -11.367188 4.234375 -11.265625 C 4.671875 -11.171875 5.050781 -11.015625 5.375 -10.796875 C 5.707031 -10.578125 6.003906 -10.304688 6.265625 -9.984375 C 6.671875 -9.453125 6.941406 -8.910156 7.078125 -8.359375 C 7.210938 -7.804688 7.207031 -7.25 7.0625 -6.6875 C 6.914062 -6.125 6.640625 -5.5625 6.234375 -5 C 5.828125 -4.445312 5.289062 -3.910156 4.625 -3.390625 C 3.9375 -2.847656 3.273438 -2.457031 2.640625 -2.21875 C 2.003906 -1.988281 1.410156 -1.882812 0.859375 -1.90625 C 0.304688 -1.9375 -0.195312 -2.082031 -0.65625 -2.34375 C -1.125 -2.601562 -1.535156 -2.953125 -1.890625 -3.390625 Z M 3.96875 -4.375 C 4.257812 -4.59375 4.476562 -4.84375 4.625 -5.125 C 4.78125 -5.414062 4.863281 -5.710938 4.875 -6.015625 C 4.882812 -6.328125 4.832031 -6.640625 4.71875 -6.953125 C 4.613281 -7.273438 4.441406 -7.585938 4.203125 -7.890625 C 3.992188 -8.160156 3.753906 -8.367188 3.484375 -8.515625 C 3.222656 -8.671875 2.921875 -8.765625 2.578125 -8.796875 C 2.234375 -8.828125 1.835938 -8.8125 1.390625 -8.75 C 0.953125 -8.695312 0.441406 -8.601562 -0.140625 -8.46875 C -0.222656 -8.195312 -0.285156 -7.921875 -0.328125 -7.640625 C -0.367188 -7.367188 -0.367188 -7.085938 -0.328125 -6.796875 C -0.296875 -6.515625 -0.222656 -6.226562 -0.109375 -5.9375 C 0.00390625 -5.65625 0.175781 -5.367188 0.40625 -5.078125 C 0.65625 -4.753906 0.925781 -4.492188 1.21875 -4.296875 C 1.519531 -4.097656 1.828125 -3.96875 2.140625 -3.90625 C 2.453125 -3.851562 2.765625 -3.863281 3.078125 -3.9375 C 3.390625 -4.007812 3.6875 -4.15625 3.96875 -4.375 Z M -1.015625 -13.90625 C -1.203125 -14.144531 -1.421875 -14.347656 -1.671875 -14.515625 C -1.921875 -14.691406 -2.175781 -14.820312 -2.4375 -14.90625 C -2.707031 -14.988281 -2.976562 -15.003906 -3.25 -14.953125 C -3.53125 -14.910156 -3.796875 -14.785156 -4.046875 -14.578125 C -4.265625 -14.410156 -4.425781 -14.210938 -4.53125 -13.984375 C -4.632812 -13.753906 -4.679688 -13.507812 -4.671875 -13.25 C -4.671875 -13 -4.609375 -12.734375 -4.484375 -12.453125 C -4.367188 -12.179688 -4.207031 -11.914062 -4 -11.65625 C -3.78125 -11.375 -3.546875 -11.15625 -3.296875 -11 C -3.046875 -10.84375 -2.773438 -10.734375 -2.484375 -10.671875 C -2.203125 -10.617188 -1.894531 -10.613281 -1.5625 -10.65625 C -1.238281 -10.695312 -0.882812 -10.765625 -0.5 -10.859375 C -0.382812 -11.140625 -0.304688 -11.398438 -0.265625 -11.640625 C -0.222656 -11.890625 -0.222656 -12.140625 -0.265625 -12.390625 C -0.304688 -12.640625 -0.382812 -12.882812 -0.5 -13.125 C -0.625 -13.375 -0.796875 -13.632812 -1.015625 -13.90625 Z M -1.015625 -13.90625 "/></g></g></g><g clip-path="url(#id7)"><path fill="#3e4651" d="M 237.46875 183.464844 L 226.464844 183.464844 C 225.273438 183.464844 224.285156 184.460938 224.285156 185.652344 C 224.285156 186.847656 225.273438 187.839844 226.464844 187.839844 L 237.46875 187.839844 C 238.660156 187.839844 239.652344 186.847656 239.652344 185.652344 C 239.652344 184.359375 238.660156 183.464844 237.46875 183.464844 Z M 237.46875 183.464844 " fill-opacity="1" fill-rule="nonzero"/></g><path fill="#3e4651" d="M 221.507812 167.957031 C 221.902344 167.957031 222.203125 167.859375 222.597656 167.660156 L 232.117188 162.09375 C 233.109375 161.496094 233.503906 160.203125 232.910156 159.109375 C 232.316406 158.117188 231.027344 157.71875 229.933594 158.316406 L 220.417969 163.882812 C 219.425781 164.476562 219.027344 165.769531 219.625 166.863281 C 220.019531 167.558594 220.714844 167.957031 221.507812 167.957031 Z M 221.507812 167.957031 " fill-opacity="1" fill-rule="nonzero"/><path fill="#3e4651" d="M 231.523438 208.917969 L 222.003906 203.449219 C 221.011719 202.851562 219.625 203.25 219.027344 204.242188 C 218.433594 205.238281 218.832031 206.628906 219.820312 207.226562 L 229.339844 212.695312 C 229.636719 212.894531 230.035156 212.992188 230.429688 212.992188 C 231.222656 212.992188 231.917969 212.59375 232.316406 211.898438 C 232.910156 210.804688 232.613281 209.511719 231.523438 208.917969 Z M 231.523438 208.917969 " fill-opacity="1" fill-rule="nonzero"/><path fill="#3e4651" d="M 206.140625 152.945312 C 206.4375 153.144531 206.832031 153.246094 207.230469 153.246094 C 208.023438 153.246094 208.71875 152.847656 209.113281 152.152344 L 214.667969 142.605469 C 215.261719 141.613281 214.863281 140.222656 213.875 139.625 C 212.882812 139.027344 211.492188 139.425781 210.898438 140.421875 L 205.347656 149.964844 C 204.75 151.058594 205.148438 152.351562 206.140625 152.945312 Z M 206.140625 152.945312 " fill-opacity="1" fill-rule="nonzero"/><path fill="#2a7bbd" d="M 187.597656 158.117188 C 172.527344 158.117188 160.234375 170.441406 160.234375 185.554688 C 160.234375 192.015625 162.515625 198.277344 166.578125 203.152344 C 171.4375 208.917969 174.113281 216.074219 174.113281 223.132812 L 174.113281 226.8125 L 200.984375 226.8125 L 200.984375 223.230469 C 200.984375 216.171875 203.660156 209.015625 208.519531 203.25 C 212.683594 198.277344 214.863281 192.015625 214.863281 185.652344 C 214.964844 170.441406 202.667969 158.117188 187.597656 158.117188 Z M 193.25 214.980469 C 193.25 215.082031 193.152344 215.082031 193.25 214.980469 C 191.265625 215.082031 189.382812 215.082031 187.402344 215.082031 C 185.417969 215.082031 183.433594 215.082031 181.550781 214.980469 C 181.253906 212.097656 180.855469 208.320312 180.0625 204.542969 C 183.039062 203.746094 185.417969 200.664062 187.300781 195.296875 C 189.183594 200.664062 191.664062 203.746094 194.539062 204.542969 C 194.539062 204.542969 194.539062 204.542969 194.636719 204.542969 C 193.945312 208.320312 193.449219 212.097656 193.25 214.980469 Z M 197.214844 196.09375 C 197.214844 196.09375 197.214844 196.191406 197.117188 196.191406 C 196.226562 198.082031 195.53125 200.367188 194.9375 202.753906 C 192.257812 201.957031 189.878906 198.378906 188.09375 192.117188 L 187.300781 189.234375 L 186.507812 192.117188 C 184.722656 198.378906 182.34375 202.058594 179.667969 202.753906 C 179.074219 200.367188 178.378906 198.082031 177.484375 196.191406 C 177.484375 196.191406 177.484375 196.09375 177.386719 196.09375 C 179.765625 193.40625 181.648438 190.824219 183.039062 188.4375 C 186.410156 182.671875 187.203125 178.199219 187.300781 175.613281 L 187.402344 175.613281 C 187.5 178.199219 188.195312 182.671875 191.664062 188.4375 C 192.953125 190.824219 194.835938 193.40625 197.214844 196.09375 Z M 197.214844 196.09375 " fill-opacity="1" fill-rule="nonzero"/><g clip-path="url(#id8)"><path fill="#3e4651" d="M 187.597656 147.675781 C 188.789062 147.675781 189.78125 146.683594 189.78125 145.492188 L 189.78125 134.554688 C 189.78125 133.363281 188.789062 132.367188 187.597656 132.367188 C 186.410156 132.367188 185.417969 133.363281 185.417969 134.554688 L 185.417969 145.589844 C 185.417969 146.78125 186.410156 147.675781 187.597656 147.675781 Z M 187.597656 147.675781 " fill-opacity="1" fill-rule="nonzero"/></g><path fill="#3e4651" d="M 165.984375 152.050781 C 166.382812 152.746094 167.074219 153.144531 167.867188 153.144531 C 168.265625 153.144531 168.660156 153.046875 168.960938 152.847656 C 169.949219 152.25 170.347656 150.957031 169.753906 149.863281 L 164.199219 140.320312 C 163.605469 139.328125 162.316406 138.929688 161.226562 139.527344 C 160.234375 140.121094 159.835938 141.414062 160.433594 142.507812 Z M 165.984375 152.050781 " fill-opacity="1" fill-rule="nonzero"/><path fill="#3e4651" d="M 152.601562 203.546875 L 143.082031 209.015625 C 142.089844 209.613281 141.695312 210.90625 142.289062 212 C 142.683594 212.695312 143.378906 213.09375 144.171875 213.09375 C 144.570312 213.09375 144.867188 212.992188 145.261719 212.792969 L 154.78125 207.324219 C 155.773438 206.730469 156.167969 205.4375 155.574219 204.34375 C 154.878906 203.347656 153.589844 202.953125 152.601562 203.546875 Z M 152.601562 203.546875 " fill-opacity="1" fill-rule="nonzero"/><path fill="#3e4651" d="M 142.785156 161.992188 L 152.300781 167.558594 C 152.601562 167.757812 152.996094 167.859375 153.394531 167.859375 C 154.1875 167.859375 154.878906 167.460938 155.277344 166.765625 C 155.871094 165.769531 155.476562 164.378906 154.484375 163.78125 L 144.964844 158.316406 C 143.972656 157.71875 142.585938 158.117188 141.992188 159.109375 C 141.394531 160.105469 141.792969 161.398438 142.785156 161.992188 Z M 142.785156 161.992188 " fill-opacity="1" fill-rule="nonzero"/><path fill="#3e4651" d="M 150.320312 185.554688 C 150.320312 184.359375 149.328125 183.367188 148.136719 183.367188 L 137.230469 183.367188 C 136.042969 183.367188 135.050781 184.359375 135.050781 185.554688 C 135.050781 186.746094 136.042969 187.742188 137.230469 187.742188 L 148.238281 187.742188 C 149.425781 187.742188 150.320312 186.746094 150.320312 185.554688 Z M 150.320312 185.554688 " fill-opacity="1" fill-rule="nonzero"/><g clip-path="url(#id9)"><path fill="#3e4651" d="M 184.824219 237.746094 L 178.277344 237.746094 C 178.277344 237.746094 178.675781 240.929688 182.542969 242.21875 C 183.238281 242.417969 183.929688 242.519531 184.625 242.519531 L 189.980469 242.519531 C 190.671875 242.519531 191.367188 242.417969 192.0625 242.21875 C 196.027344 240.828125 196.324219 237.746094 196.324219 237.746094 Z M 184.824219 237.746094 " fill-opacity="1" fill-rule="nonzero"/></g><path fill="#3e4651" d="M 178.578125 234.265625 L 196.523438 234.265625 C 199 234.265625 200.984375 232.277344 200.984375 229.792969 L 174.214844 229.792969 C 174.113281 232.277344 176.097656 234.265625 178.578125 234.265625 Z M 178.578125 234.265625 " fill-opacity="1" fill-rule="nonzero"/></svg>